# xmcd
#
# Track frame offsets: 
#        150
#        14449
#        32035
#        44638
#        63372
#        76970
#        95736
#        114161
#        132605
#        147569
#        161559
#        176272
#        189742
#        204197
#        220077
#
# Disc length: 3157 seconds
#
# Revision: 0
# Processed by: cddbd v1.5.2PL0 Copyright (c) Steve Scherf et al.
# Submitted via: ExactAudioCopy v1.3
#
DISCID=d50c530f
DTITLE=Fiona Boyes - Blues Woman
DYEAR=2008
DGENRE=Blues
TTITLE0=Woman Ain't a Mule
TTITLE1=Howlin' At Your Door
TTITLE2=I Want To Go
TTITLE3=Train to Hopesville
TTITLE4=Look Out Love!
TTITLE5=Got My Eye on You
TTITLE6=Do You Feel Better?
TTITLE7=The Barrelhouse Funeral
TTITLE8=Place of Milk and Honey
TTITLE9=Waiting for Some Good News
TTITLE10=Precious Time
TTITLE11=Fishin' Hole
TTITLE12=City Born Country Gal
TTITLE13=Juke Joint on Moses Lane
TTITLE14=Old Time Ways
EXTD=
EXTT0=
EXTT1=
EXTT2=
EXTT3=
EXTT4=
EXTT5=
EXTT6=
EXTT7=
EXTT8=
EXTT9=
EXTT10=
EXTT11=
EXTT12=
EXTT13=
EXTT14=
PLAYORDER=
